<svg width="25" height="21" viewBox="0 0 25 21" fill="none" xmlns="http://www.w3.org/2000/svg">
<g id="001 twitter black shape 1">
<g id="Group 38 1">
<path id="Path 12 1" d="M24.0919 2.97543C23.9719 3.01543 23.8419 3.04504 23.7219 3.07504C22.9719 3.26504 22.9019 3.01518 23.4419 2.46518C23.6819 2.22518 23.9019 1.95537 24.0819 1.66537C24.5019 1.01537 24.1419 0.735002 23.4219 1.035C23.1719 1.145 22.9119 1.24504 22.6519 1.32504C21.8019 1.47504 20.9319 1.285 20.2319 0.785002C18.1319 -0.494998 15.4219 -0.174978 13.6719 1.55502C12.6619 2.53502 12.0919 3.89502 12.1219 5.30502C12.1219 5.50502 12.1319 5.71537 12.1519 5.91537C12.1919 6.25537 11.6219 6.4951 10.8619 6.3851C9.22187 6.1551 7.62187 5.6451 6.15187 4.8851C4.70187 4.1451 3.38187 3.17522 2.24187 2.00522C1.70187 1.45522 0.971867 1.50496 0.771867 2.24496C0.651867 2.69496 0.591866 3.1651 0.591866 3.6351C0.581866 4.5151 0.801866 5.39537 1.23187 6.16537C1.44187 6.54537 1.69187 6.89518 1.98187 7.21518C2.46187 7.74518 2.39187 8.04508 1.72187 7.86508C1.32187 7.74508 0.941868 7.59537 0.561868 7.41537V7.44516C0.541868 8.67516 0.971867 9.87504 1.77187 10.825C2.24187 11.405 2.83187 11.8754 3.50187 12.2054C4.19187 12.5454 4.51187 12.735 4.13187 12.785C3.90187 12.815 3.66187 12.825 3.43187 12.825C3.27187 12.825 3.10187 12.815 2.93187 12.805C2.65187 12.785 2.60187 13.3552 3.02187 14.0052C3.36187 14.5352 3.80187 14.9951 4.30187 15.3651C4.81187 15.7551 5.39186 16.0454 6.01186 16.2254C6.75186 16.4354 6.90187 16.8252 6.24187 17.2152C4.60187 18.2052 2.71187 18.7152 0.801866 18.6952C0.581866 18.6952 0.361866 18.6951 0.161866 18.6751C-0.188134 18.6551 0.0418658 18.975 0.731866 19.325C2.87187 20.445 5.26187 21.0252 7.67187 21.0052C9.48187 21.0152 11.2719 20.7153 12.9819 20.1053C14.5319 19.5653 15.9619 18.7554 17.2219 17.7054C18.3919 16.7054 19.4119 15.535 20.2519 14.245C21.0819 12.985 21.7219 11.6054 22.1519 10.1654C22.5619 8.78537 22.7719 7.34512 22.7719 5.90512C22.7719 5.77512 22.7719 5.66528 22.7719 5.56528C22.7719 5.37528 23.2719 4.85504 23.8319 4.32504C24.0819 4.08504 24.3319 3.83504 24.5619 3.57504C25.0619 3.02504 24.8319 2.76543 24.0919 2.97543Z" fill="white"/>
</g>
</g>
</svg>
