<svg width="24" height="24" viewBox="0 0 24 24" fill="none" xmlns="http://www.w3.org/2000/svg">
<g id="010 instagram 1">
<g id="Group 42 1">
<g id="Group 41 1">
<path id="Path 16 1" d="M16.08 0.00439453H7.31C3.27 0.00439453 0 3.27445 0 7.31445V16.0845C0 20.1245 3.27 23.3945 7.31 23.3945H16.08C20.12 23.3945 23.39 20.1245 23.39 16.0845V7.31445C23.39 3.28445 20.11 0.00439453 16.08 0.00439453ZM21.2 16.0845C21.2 18.9145 18.91 21.2046 16.08 21.2046H7.31C4.49 21.2046 2.2 18.9145 2.19 16.0845V7.31445C2.19 4.49445 4.48 2.20434 7.31 2.19434H16.08C18.91 2.19434 21.2 4.48445 21.2 7.31445V16.0845Z" fill="white"/>
</g>
</g>
<g id="Group 44 1">
<g id="Group 43 1">
<path id="Path 17 1" d="M11.687 5.85156C8.457 5.85156 5.83701 8.47166 5.83701 11.7017C5.83701 14.9317 8.457 17.5518 11.687 17.5518C14.917 17.5518 17.537 14.9317 17.537 11.7017C17.537 8.47166 14.917 5.85156 11.687 5.85156ZM11.687 15.3516C9.667 15.3516 8.03701 13.7117 8.03701 11.7017C8.03701 9.69166 9.677 8.05176 11.687 8.05176C13.707 8.05176 15.337 9.69166 15.337 11.7017C15.337 13.7217 13.707 15.3516 11.687 15.3516Z" fill="white"/>
</g>
</g>
<g id="Group 46 1">
<g id="Group 45 1">
<path id="Ellipse 4 1" d="M17.981 6.19336C18.4118 6.19336 18.761 5.84387 18.761 5.41309C18.761 4.9823 18.4118 4.6333 17.981 4.6333C17.5502 4.6333 17.201 4.9823 17.201 5.41309C17.201 5.84387 17.5502 6.19336 17.981 6.19336Z" fill="white"/>
</g>
</g>
</g>
</svg>
