<svg width="81" height="77" viewBox="0 0 81 77" fill="none" xmlns="http://www.w3.org/2000/svg">
<g id="_002-blueprint_1_">
<path id="Path_369_1_" d="M77.9967 21.8652H65.3674L72.9046 12.8003C73.757 11.7534 73.6898 10.183 72.7252 9.23133L69.4725 6.09051C68.5304 5.16258 67.0498 5.2341 66.1974 6.2334C66.175 6.2572 66.175 6.25724 66.1525 6.28104L53.1643 21.8652H30.5752C29.9022 21.889 29.3863 22.484 29.4311 23.1978C29.4536 23.864 29.9471 24.3874 30.5752 24.4112H51.0781L45.8066 30.7402C45.3804 31.2399 45.1785 31.9058 45.2009 32.572C45.2009 32.6434 45.2234 32.7388 45.2234 32.8102L43.4064 38.0921C43.1372 38.8773 43.3391 39.7575 43.9223 40.3047C44.4831 40.8519 45.3355 40.9947 46.0085 40.614L50.6968 38.0921H50.7865H50.9211C51.5492 38.0683 52.1325 37.7591 52.5362 37.2594L63.2588 24.3874H77.9967C78.221 24.3874 78.4005 24.5776 78.4005 24.8155V73.9955C78.4005 74.2335 78.221 74.4239 78.0191 74.4239H69.4052C68.7322 74.4477 68.2163 75.0424 68.2612 75.7562C68.2836 76.4224 68.7771 76.9459 69.4052 76.9696H77.9967C79.5221 76.9459 80.7559 75.6134 80.7559 73.9955V24.8155C80.7783 23.2214 79.5445 21.889 77.9967 21.8652ZM71.1549 11.1111L69.7417 12.8003L66.5339 9.68326L67.9471 7.99406L71.1549 11.1111ZM64.9412 11.5868L65.659 12.3007L48.2966 33.1668L47.5787 32.4532L64.9412 11.5868ZM46.9058 35.2368L48.2741 36.5694L46.0533 37.759L46.9058 35.2368ZM50.7865 35.5699L50.0687 34.8563L67.4312 13.9899L68.149 14.7035L50.7865 35.5699Z" fill="#E6A859"/>
<path id="Path_370_1_" d="M64.2457 74.4481H11.0369C6.21398 74.4005 2.33323 70.2128 2.3781 65.0973V64.4311C2.35567 59.3156 6.21398 55.152 11.0369 55.0806H13.4595C14.9849 55.0568 16.2187 53.7244 16.2187 52.1065V24.4592H25.4383C26.1112 24.4592 26.6496 23.888 26.6496 23.1743C26.6496 22.4605 26.1112 21.8893 25.4383 21.8893H16.2187V17.4639C16.2187 16.7739 15.6803 16.2028 15.0298 16.2028C14.3793 16.2028 13.8409 16.7739 13.8409 17.4639V52.0827C13.8409 52.3206 13.6614 52.5108 13.4371 52.5108H11.0144C7.6272 52.5108 4.41941 54.2002 2.35566 57.0553V11.8964C2.3108 6.78098 6.19155 2.5933 11.0144 2.54571H13.4371C13.6614 2.54571 13.8409 2.73618 13.8409 2.97411V11.9203C13.8409 12.6103 14.3793 13.1814 15.0298 13.1814C15.6803 13.1814 16.2187 12.6103 16.2187 11.9203V2.97411C16.2187 1.3562 14.9849 0.0237929 13.4595 0H11.0369C4.89049 0.0713787 -0.0445607 5.37719 0.000303482 11.8964V65.0973C-0.0445607 71.6166 4.89049 76.9224 11.0369 76.9938H64.2457C64.9187 76.9938 65.4571 76.4227 65.4571 75.7089C65.4571 75.0189 64.9187 74.4481 64.2457 74.4481Z" fill="#E6A859"/>
<path id="Path_371_1_" d="M63.1242 35.6894C58.3237 35.6894 54.3308 39.6627 54.0391 44.7543H48.5881C47.9376 44.7543 47.3992 45.3254 47.3992 46.0154V60.3388C47.3992 61.0288 47.9376 61.5999 48.5881 61.5999H62.0923C62.7428 61.5999 63.2812 61.0288 63.2812 60.3388V54.9854C68.306 54.9378 72.3438 50.5838 72.2989 45.2542C72.2765 39.9008 68.149 35.6418 63.1242 35.6894ZM60.9482 52.0828C58.8621 51.3214 57.2694 49.513 56.6637 47.2527H60.9482V52.0828ZM49.7995 59.0777V47.2527H54.2186C54.9364 50.893 57.5386 53.7958 60.9482 54.6761V59.0539H49.7995V59.0777ZM63.3036 52.4632V46.0154C63.3036 45.3254 62.7652 44.7543 62.1147 44.7543H56.417C56.7086 40.8285 59.9612 37.902 63.6625 38.2113C67.3638 38.5206 70.123 41.9708 69.8314 45.8967C69.5622 49.537 66.7357 52.3681 63.3036 52.4632Z" fill="#E6A859"/>
<path id="Path_372_1_" d="M67.5209 55.913C66.8704 55.913 66.332 56.4841 66.332 57.1741C66.332 57.8641 66.8704 58.4349 67.5209 58.4349H70.1454C70.7959 58.4349 71.3342 57.8641 71.3342 57.1741C71.3342 56.4841 70.7959 55.913 70.1454 55.913H67.5209Z" fill="#E6A859"/>
<path id="Path_373_1_" d="M71.3342 60.4578C71.3342 59.7678 70.7959 59.1967 70.1454 59.1967H67.5209C66.8704 59.1967 66.332 59.7678 66.332 60.4578C66.332 61.1478 66.8704 61.7186 67.5209 61.7186H70.1454C70.8183 61.7186 71.3342 61.1478 71.3342 60.4578Z" fill="#E6A859"/>
<path id="Path_374_1_" d="M21.6248 34.8567H23.5091C24.1597 34.8567 24.6981 34.2856 24.6981 33.5956C24.6981 32.9056 24.1597 32.3345 23.5091 32.3345H21.6248C20.9743 32.3345 20.4359 32.9056 20.4359 33.5956C20.4359 34.3094 20.9743 34.8567 21.6248 34.8567Z" fill="#E6A859"/>
<path id="Path_375_1_" d="M21.6248 38.5683H30.7547C31.4053 38.5683 31.9436 37.9972 31.9436 37.3072C31.9436 36.6173 31.4053 36.0464 30.7547 36.0464H21.6248C20.9743 36.0464 20.4359 36.6173 20.4359 37.3072C20.4359 38.021 20.9743 38.5683 21.6248 38.5683Z" fill="#E6A859"/>
<path id="Path_376_1_" d="M28.848 34.8567H30.7322C31.3827 34.8567 31.921 34.2856 31.921 33.5956C31.921 32.9056 31.3827 32.3345 30.7322 32.3345H28.848C28.1975 32.3345 27.6591 32.9056 27.6591 33.5956C27.6815 34.3094 28.1975 34.8567 28.848 34.8567Z" fill="#E6A859"/>
<path id="Path_377_1_" d="M38.0003 32.358H36.116C35.4654 32.358 34.9271 32.9291 34.9271 33.6191C34.9271 34.3091 35.4654 34.8802 36.116 34.8802H38.0003C38.6508 34.8802 39.1892 34.3091 39.1892 33.6191C39.1668 32.9053 38.6508 32.358 38.0003 32.358Z" fill="#E6A859"/>
<path id="Path_378_1_" d="M21.6248 42.2562H30.7547C31.4053 42.2562 31.9436 41.6851 31.9436 40.9951C31.9436 40.3051 31.4053 39.734 30.7547 39.734H21.6248C20.9743 39.734 20.4359 40.3051 20.4359 40.9951C20.4359 41.7089 20.9743 42.2562 21.6248 42.2562Z" fill="#E6A859"/>
<path id="Path_379_1_" d="M20.4359 44.7069C20.4359 45.3968 20.9743 45.9676 21.6248 45.9676H36.0935C36.744 45.9676 37.2824 45.3968 37.2824 44.7069C37.2824 44.0169 36.744 43.4458 36.0935 43.4458H21.6248C20.9743 43.4458 20.4359 43.9931 20.4359 44.7069Z" fill="#E6A859"/>
<path id="Path_380_1_" d="M39.1668 48.3707C39.1668 47.6807 38.6284 47.1096 37.9779 47.1096H21.6024C20.9519 47.1096 20.4135 47.6807 20.4135 48.3707C20.4135 49.0607 20.9519 49.6318 21.6024 49.6318H37.9779C38.6508 49.6318 39.1668 49.0607 39.1668 48.3707Z" fill="#E6A859"/>
<path id="Path_381_1_" d="M26.0664 54.367C26.0664 53.677 25.528 53.1059 24.8775 53.1059H21.6248C20.9743 53.1059 20.4359 53.677 20.4359 54.367V57.8168C20.4359 58.5068 20.9743 59.0779 21.6248 59.0779H24.8775C25.528 59.0779 26.0664 58.5068 26.0664 57.8168V54.367ZM23.6886 56.5798H22.7913V55.6281H23.6886V56.5798Z" fill="#E6A859"/>
<path id="Path_382_1_" d="M33.895 54.367C33.895 53.677 33.3566 53.1059 32.7061 53.1059H29.4536C28.8031 53.1059 28.2648 53.677 28.2648 54.367V57.8168C28.2648 58.5068 28.8031 59.0779 29.4536 59.0779H32.7061C33.3566 59.0779 33.895 58.5068 33.895 57.8168V54.367ZM31.5173 56.5798H30.6201V55.6281H31.5173V56.5798Z" fill="#E6A859"/>
<path id="Path_383_1_" d="M41.7016 54.367C41.7016 53.677 41.1632 53.1059 40.5127 53.1059H37.2377C36.5872 53.1059 36.0488 53.677 36.0488 54.367V57.8168C36.0488 58.5068 36.5872 59.0779 37.2377 59.0779H40.4903C41.1408 59.0779 41.6791 58.5068 41.6791 57.8168L41.7016 54.367ZM39.3463 56.5798H38.449V55.6281H39.3463V56.5798Z" fill="#E6A859"/>
<path id="Path_384_1_" d="M24.8775 62.2424H21.6248C20.9743 62.2424 20.4359 62.8132 20.4359 63.5032V66.9533C20.4359 67.6433 20.9743 68.2144 21.6248 68.2144H24.8775C25.528 68.2144 26.0664 67.6433 26.0664 66.9533V63.5032C26.0664 62.7894 25.528 62.2424 24.8775 62.2424ZM23.6886 65.6922H22.7913V64.7404H23.6886V65.6922Z" fill="#E6A859"/>
<path id="Path_385_1_" d="M32.7061 62.2424H29.4536C28.8031 62.2424 28.2648 62.8132 28.2648 63.5032V66.9533C28.2648 67.6433 28.8031 68.2144 29.4536 68.2144H32.7061C33.3566 68.2144 33.895 67.6433 33.895 66.9533V63.5032C33.895 62.7894 33.3566 62.2424 32.7061 62.2424ZM31.5173 65.6922H30.6201V64.7404H31.5173V65.6922Z" fill="#E6A859"/>
<path id="Path_386_1_" d="M37.26 68.2144H40.5126C41.1632 68.2144 41.7015 67.6433 41.7015 66.9533V63.5032C41.7015 62.8132 41.1632 62.2424 40.5126 62.2424H37.26C36.6095 62.2424 36.0711 62.8132 36.0711 63.5032V66.9533C36.0711 67.6433 36.6095 68.2144 37.26 68.2144ZM38.4489 64.7404H39.3462V65.6922H38.4489V64.7404Z" fill="#E6A859"/>
</g>
</svg>
