<svg width="225" height="225" viewBox="0 0 225 225" fill="none" xmlns="http://www.w3.org/2000/svg">
<g id="Frame" clip-path="url(#clip0_1_38)">
<path id="Vector" d="M12.7184 25.4367C19.7425 25.4367 25.4367 19.7425 25.4367 12.7184C25.4367 5.6942 19.7425 0 12.7184 0C5.6942 0 0 5.6942 0 12.7184C0 19.7425 5.6942 25.4367 12.7184 25.4367Z" fill="#E2B84C" fill-opacity="0.1"/>
<path id="Vector_2" d="M52.6399 25.4367C59.664 25.4367 65.3582 19.7425 65.3582 12.7184C65.3582 5.6942 59.664 0 52.6399 0C45.6157 0 39.9215 5.6942 39.9215 12.7184C39.9215 19.7425 45.6157 25.4367 52.6399 25.4367Z" fill="#E2B84C" fill-opacity="0.1"/>
<path id="Vector_3" d="M92.5172 25.4367C99.5413 25.4367 105.236 19.7425 105.236 12.7184C105.236 5.6942 99.5413 0 92.5172 0C85.493 0 79.7988 5.6942 79.7988 12.7184C79.7988 19.7425 85.493 25.4367 92.5172 25.4367Z" fill="#E2B84C" fill-opacity="0.1"/>
<path id="Vector_4" d="M12.7184 65.3581C19.7425 65.3581 25.4367 59.6639 25.4367 52.6397C25.4367 45.6156 19.7425 39.9214 12.7184 39.9214C5.6942 39.9214 0 45.6156 0 52.6397C0 59.6639 5.6942 65.3581 12.7184 65.3581Z" fill="#E2B84C" fill-opacity="0.1"/>
<path id="Vector_5" d="M52.6399 65.3581C59.664 65.3581 65.3582 59.6639 65.3582 52.6397C65.3582 45.6156 59.664 39.9214 52.6399 39.9214C45.6157 39.9214 39.9215 45.6156 39.9215 52.6397C39.9215 59.6639 45.6157 65.3581 52.6399 65.3581Z" fill="#E2B84C" fill-opacity="0.1"/>
<path id="Vector_6" d="M92.5172 65.3581C99.5413 65.3581 105.236 59.6639 105.236 52.6397C105.236 45.6156 99.5413 39.9214 92.5172 39.9214C85.493 39.9214 79.7988 45.6156 79.7988 52.6397C79.7988 59.6639 85.493 65.3581 92.5172 65.3581Z" fill="#E2B84C" fill-opacity="0.1"/>
<path id="Vector_7" d="M12.7184 105.236C19.7425 105.236 25.4367 99.5413 25.4367 92.5172C25.4367 85.493 19.7425 79.7988 12.7184 79.7988C5.6942 79.7988 0 85.493 0 92.5172C0 99.5413 5.6942 105.236 12.7184 105.236Z" fill="#E2B84C" fill-opacity="0.1"/>
<path id="Vector_8" d="M52.6399 105.236C59.664 105.236 65.3582 99.5413 65.3582 92.5172C65.3582 85.493 59.664 79.7988 52.6399 79.7988C45.6157 79.7988 39.9215 85.493 39.9215 92.5172C39.9215 99.5413 45.6157 105.236 52.6399 105.236Z" fill="#E2B84C" fill-opacity="0.1"/>
<path id="Vector_9" d="M92.5172 105.236C99.5413 105.236 105.236 99.5413 105.236 92.5172C105.236 85.493 99.5413 79.7988 92.5172 79.7988C85.493 79.7988 79.7988 85.493 79.7988 92.5172C79.7988 99.5413 85.493 105.236 92.5172 105.236Z" fill="#E2B84C" fill-opacity="0.1"/>
<path id="Vector_10" d="M132.439 25.4367C139.463 25.4367 145.157 19.7425 145.157 12.7184C145.157 5.6942 139.463 0 132.439 0C125.415 0 119.72 5.6942 119.72 12.7184C119.72 19.7425 125.415 25.4367 132.439 25.4367Z" fill="#E2B84C" fill-opacity="0.1"/>
<path id="Vector_11" d="M172.36 25.4367C179.384 25.4367 185.079 19.7425 185.079 12.7184C185.079 5.6942 179.384 0 172.36 0C165.336 0 159.642 5.6942 159.642 12.7184C159.642 19.7425 165.336 25.4367 172.36 25.4367Z" fill="#E2B84C" fill-opacity="0.1"/>
<path id="Vector_12" d="M212.282 25.4367C219.306 25.4367 225 19.7425 225 12.7184C225 5.6942 219.306 0 212.282 0C205.258 0 199.563 5.6942 199.563 12.7184C199.563 19.7425 205.258 25.4367 212.282 25.4367Z" fill="#E2B84C" fill-opacity="0.1"/>
<path id="Vector_13" d="M132.439 65.3581C139.463 65.3581 145.157 59.6639 145.157 52.6397C145.157 45.6156 139.463 39.9214 132.439 39.9214C125.415 39.9214 119.72 45.6156 119.72 52.6397C119.72 59.6639 125.415 65.3581 132.439 65.3581Z" fill="#E2B84C" fill-opacity="0.1"/>
<path id="Vector_14" d="M172.36 65.3581C179.384 65.3581 185.079 59.6639 185.079 52.6397C185.079 45.6156 179.384 39.9214 172.36 39.9214C165.336 39.9214 159.642 45.6156 159.642 52.6397C159.642 59.6639 165.336 65.3581 172.36 65.3581Z" fill="#E2B84C" fill-opacity="0.1"/>
<path id="Vector_15" d="M212.282 65.3581C219.306 65.3581 225 59.6639 225 52.6397C225 45.6156 219.306 39.9214 212.282 39.9214C205.258 39.9214 199.563 45.6156 199.563 52.6397C199.563 59.6639 205.258 65.3581 212.282 65.3581Z" fill="#E2B84C" fill-opacity="0.1"/>
<path id="Vector_16" d="M132.439 105.236C139.463 105.236 145.157 99.5413 145.157 92.5172C145.157 85.493 139.463 79.7988 132.439 79.7988C125.415 79.7988 119.72 85.493 119.72 92.5172C119.72 99.5413 125.415 105.236 132.439 105.236Z" fill="#E2B84C" fill-opacity="0.1"/>
<path id="Vector_17" d="M172.36 105.236C179.384 105.236 185.079 99.5413 185.079 92.5172C185.079 85.493 179.384 79.7988 172.36 79.7988C165.336 79.7988 159.642 85.493 159.642 92.5172C159.642 99.5413 165.336 105.236 172.36 105.236Z" fill="#E2B84C" fill-opacity="0.1"/>
<path id="Vector_18" d="M212.282 105.236C219.306 105.236 225 99.5413 225 92.5172C225 85.493 219.306 79.7988 212.282 79.7988C205.258 79.7988 199.563 85.493 199.563 92.5172C199.563 99.5413 205.258 105.236 212.282 105.236Z" fill="#E2B84C" fill-opacity="0.1"/>
<path id="Vector_19" d="M12.7184 145.157C19.7425 145.157 25.4367 139.463 25.4367 132.439C25.4367 125.414 19.7425 119.72 12.7184 119.72C5.6942 119.72 0 125.414 0 132.439C0 139.463 5.6942 145.157 12.7184 145.157Z" fill="#E2B84C" fill-opacity="0.1"/>
<path id="Vector_20" d="M52.6399 145.157C59.664 145.157 65.3582 139.463 65.3582 132.439C65.3582 125.414 59.664 119.72 52.6399 119.72C45.6157 119.72 39.9215 125.414 39.9215 132.439C39.9215 139.463 45.6157 145.157 52.6399 145.157Z" fill="#E2B84C" fill-opacity="0.1"/>
<path id="Vector_21" d="M92.5172 145.157C99.5413 145.157 105.236 139.463 105.236 132.439C105.236 125.414 99.5413 119.72 92.5172 119.72C85.493 119.72 79.7988 125.414 79.7988 132.439C79.7988 139.463 85.493 145.157 92.5172 145.157Z" fill="#E2B84C" fill-opacity="0.1"/>
<path id="Vector_22" d="M12.7184 185.079C19.7425 185.079 25.4367 179.384 25.4367 172.36C25.4367 165.336 19.7425 159.642 12.7184 159.642C5.6942 159.642 0 165.336 0 172.36C0 179.384 5.6942 185.079 12.7184 185.079Z" fill="#E2B84C" fill-opacity="0.1"/>
<path id="Vector_23" d="M52.6399 185.079C59.664 185.079 65.3582 179.384 65.3582 172.36C65.3582 165.336 59.664 159.642 52.6399 159.642C45.6157 159.642 39.9215 165.336 39.9215 172.36C39.9215 179.384 45.6157 185.079 52.6399 185.079Z" fill="#E2B84C" fill-opacity="0.1"/>
<path id="Vector_24" d="M92.5172 185.079C99.5413 185.079 105.236 179.384 105.236 172.36C105.236 165.336 99.5413 159.642 92.5172 159.642C85.493 159.642 79.7988 165.336 79.7988 172.36C79.7988 179.384 85.493 185.079 92.5172 185.079Z" fill="#E2B84C" fill-opacity="0.1"/>
<path id="Vector_25" d="M12.7184 225C19.7425 225 25.4367 219.306 25.4367 212.282C25.4367 205.257 19.7425 199.563 12.7184 199.563C5.6942 199.563 0 205.257 0 212.282C0 219.306 5.6942 225 12.7184 225Z" fill="#E2B84C" fill-opacity="0.1"/>
<path id="Vector_26" d="M52.6399 225C59.664 225 65.3582 219.306 65.3582 212.282C65.3582 205.257 59.664 199.563 52.6399 199.563C45.6157 199.563 39.9215 205.257 39.9215 212.282C39.9215 219.306 45.6157 225 52.6399 225Z" fill="#E2B84C" fill-opacity="0.1"/>
<path id="Vector_27" d="M92.5172 225C99.5413 225 105.236 219.306 105.236 212.282C105.236 205.257 99.5413 199.563 92.5172 199.563C85.493 199.563 79.7988 205.257 79.7988 212.282C79.7988 219.306 85.493 225 92.5172 225Z" fill="#E2B84C" fill-opacity="0.1"/>
<path id="Vector_28" d="M132.439 145.157C139.463 145.157 145.157 139.463 145.157 132.439C145.157 125.414 139.463 119.72 132.439 119.72C125.415 119.72 119.72 125.414 119.72 132.439C119.72 139.463 125.415 145.157 132.439 145.157Z" fill="#E2B84C" fill-opacity="0.1"/>
<path id="Vector_29" d="M172.36 145.157C179.384 145.157 185.079 139.463 185.079 132.439C185.079 125.414 179.384 119.72 172.36 119.72C165.336 119.72 159.642 125.414 159.642 132.439C159.642 139.463 165.336 145.157 172.36 145.157Z" fill="#E2B84C" fill-opacity="0.1"/>
<path id="Vector_30" d="M212.282 145.157C219.306 145.157 225 139.463 225 132.439C225 125.414 219.306 119.72 212.282 119.72C205.258 119.72 199.563 125.414 199.563 132.439C199.563 139.463 205.258 145.157 212.282 145.157Z" fill="#E2B84C" fill-opacity="0.1"/>
<path id="Vector_31" d="M132.439 185.079C139.463 185.079 145.157 179.384 145.157 172.36C145.157 165.336 139.463 159.642 132.439 159.642C125.415 159.642 119.72 165.336 119.72 172.36C119.72 179.384 125.415 185.079 132.439 185.079Z" fill="#E2B84C" fill-opacity="0.1"/>
<path id="Vector_32" d="M172.36 185.079C179.384 185.079 185.079 179.384 185.079 172.36C185.079 165.336 179.384 159.642 172.36 159.642C165.336 159.642 159.642 165.336 159.642 172.36C159.642 179.384 165.336 185.079 172.36 185.079Z" fill="#E2B84C" fill-opacity="0.1"/>
<path id="Vector_33" d="M212.282 185.079C219.306 185.079 225 179.384 225 172.36C225 165.336 219.306 159.642 212.282 159.642C205.258 159.642 199.563 165.336 199.563 172.36C199.563 179.384 205.258 185.079 212.282 185.079Z" fill="#E2B84C" fill-opacity="0.1"/>
<path id="Vector_34" d="M132.439 225C139.463 225 145.157 219.306 145.157 212.282C145.157 205.257 139.463 199.563 132.439 199.563C125.415 199.563 119.72 205.257 119.72 212.282C119.72 219.306 125.415 225 132.439 225Z" fill="#E2B84C" fill-opacity="0.1"/>
<path id="Vector_35" d="M172.36 225C179.384 225 185.079 219.306 185.079 212.282C185.079 205.257 179.384 199.563 172.36 199.563C165.336 199.563 159.642 205.257 159.642 212.282C159.642 219.306 165.336 225 172.36 225Z" fill="#E2B84C" fill-opacity="0.1"/>
<path id="Vector_36" d="M212.282 225C219.306 225 225 219.306 225 212.282C225 205.257 219.306 199.563 212.282 199.563C205.258 199.563 199.563 205.257 199.563 212.282C199.563 219.306 205.258 225 212.282 225Z" fill="#E2B84C" fill-opacity="0.1"/>
</g>
<defs>
<clipPath id="clip0_1_38">
<rect width="225" height="225" fill="white"/>
</clipPath>
</defs>
</svg>
