<svg width="11" height="23" viewBox="0 0 11 23" fill="none" xmlns="http://www.w3.org/2000/svg">
<path d="M9.77903 0.0242814H7.41903C5.99903 -0.115719 4.58903 0.35432 3.52903 1.31432C2.66903 2.38432 2.24903 3.73436 2.34903 5.10436V6.6942C2.34903 7.1142 2.00903 7.45446 1.58903 7.45446H0.769028C0.349028 7.45446 0.0090332 7.79422 0.0090332 8.21422V10.5941C0.0090332 11.0141 0.349028 11.3544 0.769028 11.3544H1.58903C2.00903 11.3544 2.34903 11.6941 2.34903 12.1141V21.9242C2.34903 22.3442 2.68903 22.6844 3.10903 22.6844H6.27903C6.69903 22.6844 7.03903 22.3442 7.03903 21.9242V12.1141C7.03903 11.6941 7.37903 11.3544 7.79903 11.3544H9.39903C9.82903 11.3444 10.189 11.0241 10.239 10.5941L10.489 8.20446C10.539 7.83446 10.279 7.50446 9.90903 7.45446C9.87903 7.45446 9.83903 7.4442 9.80903 7.4442H7.79903C7.37903 7.4442 7.03903 7.10444 7.03903 6.68444V5.48424C7.03903 5.25424 7.04903 5.02407 7.07903 4.80407C7.10903 4.63407 7.16903 4.47409 7.26903 4.32409C7.37903 4.16409 7.53903 4.04426 7.72903 4.00426C8.00903 3.93426 8.29903 3.90442 8.58903 3.91442H9.78903C10.209 3.91442 10.549 3.57416 10.549 3.15416V0.764027C10.539 0.364027 10.199 0.0242814 9.77903 0.0242814Z" fill="white"/>
</svg>
